<svg id="Layer_1" data-name="Layer 1" xmlns="http://www.w3.org/2000/svg" width="39.78mm" height="25.41mm" viewBox="0 0 112.76 72.04"><defs><style>.cls-1{fill:none;stroke:#fff;stroke-miterlimit:10;stroke-width:5px;}.cls-2{fill:#fff;}</style></defs><title>DA</title><line class="cls-1" x1="59.95" y1="27.97" x2="77.71" y2="46.35"/><line class="cls-1" x1="94.54" y1="27.97" x2="76.78" y2="46.35"/><path class="cls-2" d="M33,29.72V41.06c0,2.21-1.12,6.83-6.75,6.83H18.17l-.63-.53v-24l.6-.45h8C31.89,22.9,33,27.55,33,29.72Zm-3.32.11c0-3-2-3.54-3.29-3.54H20.94V44.56h5.49c1.3,0,3.26-.59,3.26-3.53Z"/><path class="cls-2" d="M48.13,23.49l5.57,23.7v.7H50.37L48.83,41.1H39.94c-.46,2.17-1,4.65-1.47,6.79H35.11v-.67l5.46-23.73.63-.56h6.51ZM48,37.74c-.8-3.92-1.68-7.6-2.48-11.55H43.23L40.71,37.74Z"/></svg>
