<svg id="Layer_1_Image" data-name="Layer 1 Image" xmlns="http://www.w3.org/2000/svg" viewBox="0 0 180.62 43.45"><defs><style>.cls-1{fill:#f15e22;}</style></defs><title>logo_orange</title><path class="cls-1" d="M0,21.88c0-6.8,0-13.6,0-20.4C0,.29.39,0,1.52,0Q20.66,0,39.8,0c1.1,0,1.41.33,1.46,1.43a4.16,4.16,0,0,1-1.4,3.45c-5,5-10,10-15,15a2.56,2.56,0,0,0,0,3.95L40.49,39.47a4.87,4.87,0,0,1,.63,3.79,1.06,1.06,0,0,1-.67.39,4.27,4.27,0,0,1-1,0H1.82C0,43.69,0,43.68,0,41.91Z"/><path class="cls-1" d="M53.41,23.87,56,18.52a2,2,0,0,1,2.55-.91,1.13,1.13,0,0,1,.41.87c0,4.12,0,8.24,0,12.36,0,.86-.47,1-1.15,1s-1.16-.2-1.15-1c0-2.12,0-4.24,0-6.36a2.48,2.48,0,0,0-.28-1.35c-.56,1.15-1.17,2.28-1.68,3.45-.28.65-.71,1-1.37.81a2.25,2.25,0,0,1-1.24-.8c-.67-1.16-1.21-2.41-1.94-3.92-.06.64-.11,1-.11,1.29,0,2.28,0,4.56,0,6.84,0,.89-.41,1.06-1.18,1.06s-1.14-.24-1.13-1.1c0-4,0-8,0-12,0-.38.37-1.1.53-1.09.75.06,1.7-.6,2.23.49.63,1.33,1.28,2.66,1.92,4C52.75,22.62,53,23.13,53.41,23.87Z"/><path class="cls-1" d="M115,22.85c-.55,1.13-1.12,2.25-1.64,3.39-.3.64-.54,1.16-1.43,1.16s-1.17-.43-1.47-1.1c-.47-1-1-2-1.52-3.07l-.32.05c0,.4-.08.8-.08,1.2,0,2,0,4,0,6,0,.82-.11,1.36-1.16,1.34s-1.11-.48-1.11-1.27c0-3.92,0-7.84,0-11.76,0-.41.38-1.17.6-1.17.74,0,1.69-.53,2.2.56.86,1.83,1.76,3.64,2.77,5.72,1-2,1.9-3.69,2.63-5.47.53-1.32,1.56-.88,2.4-.8.25,0,.6.89.61,1.38,0,3.8,0,7.6,0,11.4,0,.83-.11,1.38-1.14,1.41s-1.18-.48-1.17-1.34c0-2.16,0-4.32,0-6.48,0-.37,0-.75-.06-1.12Z"/><path class="cls-1" d="M106.5,7.93v5.25h5.87c.41,1.18.15,1.63-1,1.59-2.11-.06-4.22,0-6.45,0v-4c-1.22,0-2.33-.05-3.43,0-.27,0-.61.44-.73.75a14.67,14.67,0,0,0-.57,2.19c-.19,1-.74,1.32-1.8.9q.75-2.94,1.51-5.87c.62-2.39,1.28-4.77,1.87-7.17.19-.77.47-1.11,1.34-1.09,2.76.06,5.51,0,8.27,0,.35,0,.7.05,1,.07.38,1.1.11,1.56-1,1.51-1.59-.06-3.18,0-4.84,0V6.47c1.54,0,3,0,4.55,0a1.27,1.27,0,0,1,1,.64c.2.76-.42.79-1,.79Zm-1.66-6.07c-.67.28-1.54.38-1.65.73-.66,2.12-1.14,4.29-1.69,6.47h3.34Z"/><path class="cls-1" d="M49.1,15.74A11.64,11.64,0,0,1,48,12.58a72.36,72.36,0,0,1,.13-10C48.28.9,50.09.38,51.81.46c.72,0,1.56.29,1.81-.82,0-.14.48-.31.68-.26a.73.73,0,0,1,.39.6,3.35,3.35,0,0,0,.68,2.56,1.36,1.36,0,0,1,.21.68c0,2.87.14,5.76,0,8.62a3.6,3.6,0,0,1-4.26,3.08c-.62-.09-1.16-.28-1.46.54C49.75,15.67,49.2,15.7,49.1,15.74ZM54,3.68l-.21,0-3,9.42c2,.4,3.17-.17,3.2-1.62C54.07,8.86,54,6.27,54,3.68ZM52.54,2.15c-2.55-.22-3.19.35-3.19,2.68v6.29h.31Z"/><path class="cls-1" d="M86.37,19.82v3.27c1.56,0,3.06,0,4.56,0,.87,0,1.34.19,1.37,1.18s-.56,1.14-1.37,1.12c-1.47,0-2.94,0-4.52,0v4.17c1.59,0,3.21,0,4.83,0,.87,0,1.46.06,1.43,1.18s-.64,1.1-1.42,1.09c-2,0-3.92,0-5.88,0-.94,0-1.37-.27-1.36-1.3,0-3.92,0-7.83,0-11.75,0-1,.3-1.26,1.24-1.24q3.12.09,6.24,0c.91,0,1.18.34,1.17,1.2s-.31,1.13-1.14,1.11C89.84,19.79,88.17,19.82,86.37,19.82Z"/><path class="cls-1" d="M70.68,23.46c0,1.52,0,3,0,4.56,0,2.43-1.21,3.69-3.64,3.87a12.51,12.51,0,0,1-2,0c-2.18-.2-3.42-1.36-3.48-3.53-.09-3.27,0-6.55,0-9.83,0-.84.44-1,1.15-1s1.13.15,1.12,1c0,3-.07,5.92,0,8.87,0,.71.4,1.8.9,2a4.39,4.39,0,0,0,2.82,0c.44-.14.82-1.15.84-1.78.09-2.91.06-5.84,0-8.75,0-.88.18-1.33,1.19-1.32s1.13.47,1.12,1.28C70.65,20.34,70.68,21.9,70.68,23.46Z"/><path class="cls-1" d="M77.11,32.29a18.9,18.9,0,0,1-3.28-1.22,3.07,3.07,0,0,1-1-1.79c-.11-.41.14-1.31.37-1.36.65-.14,1.48-.42,1.86.67s1.69,1.41,3.19,1.06a1.43,1.43,0,0,0,1.21-1.86,2.55,2.55,0,0,0-1-1.43c-1.15-.7-2.41-1.22-3.62-1.85-1.65-.86-2.19-2.19-1.81-4.36a3,3,0,0,1,3-2.63,13.8,13.8,0,0,1,3.08,0,2.69,2.69,0,0,1,2.5,3c0,.33-.4.92-.59.91-.55,0-1.38-.14-1.59-.51a2.67,2.67,0,0,0-3.67-1,1.59,1.59,0,0,0,.44,2.66C77,23.1,78,23.51,79,24c2.47,1.14,3.21,2.64,2.6,5.29C81.15,31.22,79.87,32,77.11,32.29Z"/><path class="cls-1" d="M94.79,23.45c0-1.56,0-3.12,0-4.68,0-.79.12-1.27,1.1-1.25s1.21.46,1.21,1.33c0,2.84,0,5.67,0,8.51,0,1.73.62,2.4,2.2,2.42s2.37-.63,2.39-2.41c0-2.83,0-5.67,0-8.51,0-.81.1-1.35,1.16-1.35s1.11.62,1.1,1.39c0,2.92,0,5.83,0,8.75s-1.26,4.25-4.33,4.27a9.52,9.52,0,0,1-2.26-.21,3.18,3.18,0,0,1-2.51-3.23c0-1.68,0-3.36,0-5Z"/><path class="cls-1" d="M147.41,14.62V.63c1.07-.29,1.8-.19,2.34,1,1.32,2.87,2.8,5.65,4.21,8.47a2.55,2.55,0,0,0,.85,1V.58L156.3.49v14.1a1.6,1.6,0,0,1-2.33-.93c-1.32-2.86-2.79-5.65-4.2-8.47a2.52,2.52,0,0,0-.87-1.07c0,.42-.08.83-.09,1.25,0,2.75,0,5.51,0,8.27C148.84,14.64,148.47,15,147.41,14.62Z"/><path class="cls-1" d="M159.66,14.6V.53c1.94,0,3.81-.12,5.66,0a3.22,3.22,0,0,1,2.81,3.26q.08,3.78,0,7.56a3.07,3.07,0,0,1-2.71,3.18C163.54,14.75,161.63,14.6,159.66,14.6Zm1.61-12.53V13.22c1.1,0,2.14.06,3.16,0a2.16,2.16,0,0,0,2.14-2.11q.06-3.48,0-7a2.05,2.05,0,0,0-1.9-2C163.57,2,162.45,2.07,161.27,2.07Z"/><path class="cls-1" d="M145,14.64c-1.07.37-1.51,0-1.72-1-.62-2.92-.65-2.92-3.41-2.92s-2.87,0-3.38,2.81c-.22,1.16-.68,1.5-1.84,1.09l2.46-10.82c0-.16.1-.31.13-.46.7-3.15.73-3.18,4-2.79a1,1,0,0,1,.7.57c1.07,4.41,2.1,8.84,3.13,13.26C145.11,14.43,145.06,14.51,145,14.64Zm-2.93-5.59c-.43-2.17-.81-4.25-1.28-6.31a1.15,1.15,0,0,0-.93-.62,1.31,1.31,0,0,0-1,.71c-.34,1.25-.52,2.54-.78,3.81-.16.78-.34,1.57-.53,2.41Z"/><path class="cls-1" d="M78.08,11.42c.79-.14,1.27-.2,1.62.74.55,1.51,2,1.34,3.29,1.27,1.72-.08,2.46-.86,2.19-2.53a3,3,0,0,0-1.24-1.84c-1.2-.77-2.56-1.29-3.83-1.95C78.52,6.28,78,5,78.28,3A2.83,2.83,0,0,1,81.05.44,12.08,12.08,0,0,1,84.6.56C86,.8,86.54,1.85,86.5,3.68H85.16a3.3,3.3,0,0,0-4.85-1.41,2.24,2.24,0,0,0,.55,3.46c1.2.63,2.46,1.14,3.68,1.72,1.9.92,2.55,2.3,2.2,4.54-.29,1.8-1.15,2.66-3.25,2.9a10.13,10.13,0,0,1-3.2-.17C78.74,14.39,78,13.2,78.08,11.42Z"/><path class="cls-1" d="M66.05,3.7H64.81a3.28,3.28,0,0,0-4.76-1.48,2.19,2.19,0,0,0,.48,3.53c1.2.63,2.47,1.12,3.69,1.72,1.9.93,2.5,2.28,2.14,4.68-.23,1.57-1.18,2.49-3.16,2.72a10.24,10.24,0,0,1-3.31-.18c-1.48-.3-2.17-1.42-2.2-3.19.69-.22,1.26-.46,1.61.61.46,1.38,1.74,1.37,2.91,1.34s2.25-.07,2.59-1.42c.4-1.56-.06-2.46-1.56-3.21-1.18-.59-2.37-1.13-3.54-1.74a3.44,3.44,0,0,1-1.81-3.94A2.9,2.9,0,0,1,60.65.45a11.43,11.43,0,0,1,3.2,0C65.63.75,66.3,1.79,66.05,3.7Z"/><path class="cls-1" d="M170.74,11.45c.75-.27,1.2-.15,1.51.72.42,1.18,2.22,1.64,4,1.16a1.89,1.89,0,0,0,1.51-2.44,3.29,3.29,0,0,0-1.28-1.84c-1.16-.75-2.48-1.26-3.72-1.9-1.74-.89-2.23-2-1.9-4.19A2.84,2.84,0,0,1,173.74.4a11.84,11.84,0,0,1,3.56.19c1.27.26,1.78,1.3,1.77,3.12l-1.24.06a3.11,3.11,0,0,0-4.45-1.71,2.39,2.39,0,0,0-1.07,1.52,1.91,1.91,0,0,0,1.13,2.18c1.4.67,2.83,1.28,4.22,2,1.71.86,1.68,2.47,1.61,4-.07,1.36-.63,2.58-2,2.79a14.41,14.41,0,0,1-4.68,0C171.09,14.31,170.49,13,170.74,11.45Z"/><path class="cls-1" d="M88.84,11.36H90c.59,1.92,2.11,2.65,3.93,1.75a2.15,2.15,0,0,0,1-1.55c.1-3.11,0-6.22,0-9.5H89.86V.56h6.66c0,.44.07.82.07,1.21,0,3,0,6.07,0,9.11s-1,4-4,4a9.46,9.46,0,0,1-1.07-.06C89.29,14.63,88.61,13.77,88.84,11.36Z"/><path class="cls-1" d="M76.64.57V2H73.15c0,.54-.07,1-.07,1.38,0,3.39,0,6.79,0,10.19,0,1.19-.48,1.35-1.58,1.07V2.05H67.93V.57Z"/><path class="cls-1" d="M125.28.56h1.37V13.19h6.49c.39,1.14.16,1.62-1,1.58-2-.06-4,0-6,0-.54,0-1,0-1-.77,0-4.35,0-8.7,0-13.06C125.12.82,125.21.72,125.28.56Z"/><path class="cls-1" d="M115.06.57h1.47V13.22H123v1.45h-8Z"/><path class="cls-1" d="M59.88,43c-.87.26-1.5.35-1.62-.74-.1-.94-.86-.78-1.48-.75s-1.35-.26-1.46.75-.66,1.06-1.62.74c.52-2.16,1-4.32,1.65-6.41.11-.34,1.3-.4,2-.42a1.17,1.17,0,0,1,.95.57C58.87,38.83,59.35,40.91,59.88,43Zm-4-2.77h1.82L57,37.35h-.39Z"/><path class="cls-1" d="M53.16,43c-2.32.59-2.28-2-3.94-2.35a8.73,8.73,0,0,1-.11,1.67c-.09.32-.45.56-.69.84-.22-.25-.63-.5-.63-.76-.06-1.83-.06-3.67,0-5.5,0-.26.41-.5.64-.75.23.24.63.45.67.71a16.28,16.28,0,0,1,0,2.23c1.64-.63,1.58-3.22,4-2.86-.41.68-.69,1.18-1,1.66-1.27,1.84-1.27,1.83.11,3.67C52.59,42,52.82,42.47,53.16,43Z"/><path class="cls-1" d="M71.72,43c-2.43.6-2.45-2-4.16-2.37a8.68,8.68,0,0,1,0,1.71c-.08.31-.45.56-.69.84-.22-.26-.63-.51-.64-.77-.06-1.84-.06-3.68,0-5.51,0-.25.44-.49.68-.73.23.25.61.48.64.75a15.82,15.82,0,0,1,0,2.2c1.62-.65,1.59-3.2,4.14-2.86C71,37.36,70.42,38.22,69.8,39a1,1,0,0,0,0,1.47C70.46,41.24,71,42,71.72,43Z"/><path class="cls-1" d="M89.64,36.29c4-.45,4.36.06,4.35,3.44s-.49,3.77-4.35,3.36Zm.82.82V42.2l.88.06c1.64,0,1.8-.12,1.8-1.74a9.47,9.47,0,0,0,0-2.26,2,2,0,0,0-1-1.11A4.36,4.36,0,0,0,90.46,37.11Z"/><path class="cls-1" d="M87.38,40.93V36.22l.56,0A61,61,0,0,1,88.08,43c-.92.45-1.2,0-1.48-.63-.63-1.34-1.3-2.67-1.95-4l-.45.08v4.7l-.49.05a3.15,3.15,0,0,1-.25-.85c0-1.76,0-3.51,0-5.27,0-.28.27-.56.42-.85.3.19.73.31.87.58.75,1.39,1.42,2.82,2.12,4.23Z"/><path class="cls-1" d="M82,43.26c-.2-.18-.57-.37-.56-.55,0-1.85-1.29-1.53-2.41-1.52a2,2,0,0,0-.41.06c-.62.52-.09,1.73-1.45,2l.88-4.1c.13-.58.3-1.16.41-1.75s.25-1.25,1.22-1.25,1.22.37,1.38,1.22c.37,1.9.84,3.78,1.28,5.67Zm-1.29-3-.7-3.37-.39,0-.87,3.4Z"/><path class="cls-1" d="M60.8,43.2V36.34c1.06-.43,1.41,0,1.38,1s0,2.32,0,3.47c0,.81.24,1.21,1.09,1.12a2.74,2.74,0,0,1,1.07,0,3.2,3.2,0,0,1,.83.58c-.25.22-.49.62-.76.64C63.24,43.24,62.09,43.2,60.8,43.2Z"/><path class="cls-1" d="M100.44,36.32h4.3l.09.32c-.27.1-.54.32-.8.3-1-.09-1.19.44-1.15,1.3.05,1.28,0,2.56,0,3.83,0,.36-.08.71-.12,1.07h-.42a5.92,5.92,0,0,1-.17-1c0-1.28-.05-2.55,0-3.83,0-.91-.14-1.48-1.22-1.38-.18,0-.38-.16-.57-.25Z"/><path class="cls-1" d="M73.28,36.24a9.5,9.5,0,0,1,.15,1.07c0,1.35,0,2.71,0,4.07,0,.79.3,1.08,1.06,1s1.43,0,2.15,0v.64c-.72.05-1.45.13-2.17.14-1.82,0-1.82,0-1.82-1.8,0-1.36,0-2.71,0-4.07,0-.36.1-.73.14-1.09Z"/><path class="cls-1" d="M97.28,37.1a11.22,11.22,0,0,1-1.42,0c-.21,0-.4-.25-.6-.39.17-.17.33-.48.51-.49a29.62,29.62,0,0,1,3,0c.18,0,.34.3.52.47-.19.14-.36.38-.56.41A11.35,11.35,0,0,1,97.28,37.1Z"/><path class="cls-1" d="M97.35,42.3a13.45,13.45,0,0,1,1.42,0,.62.62,0,0,1,.46.38c0,.14-.21.46-.34.46q-1.61.06-3.21,0c-.13,0-.37-.32-.34-.46s.29-.36.46-.38C96.31,42.26,96.83,42.3,97.35,42.3Z"/><path class="cls-1" d="M95.4,39.2h3.44l.25.23c-.24.22-.47.59-.74.62C96.27,40.35,95.42,40.09,95.4,39.2Z"/></svg>
