<?xml version="1.0" encoding="utf-8"?>
<!-- Generator: Adobe Illustrator 23.0.3, SVG Export Plug-In . SVG Version: 6.00 Build 0)  -->
<svg version="1.1" id="Layer_1" xmlns="http://www.w3.org/2000/svg" xmlns:xlink="http://www.w3.org/1999/xlink" x="0px" y="0px"
	 viewBox="0 0 54.7 33.9" style="enable-background:new 0 0 54.7 33.9;" xml:space="preserve">
<style type="text/css">
	.st0{fill:#FF7F00;}
	.st1{fill:#FFFFFF;}
	.st2{fill:#FF6600;}
	.st3{fill:#8C8279;}
	.st4{fill:none;stroke:#C2B59B;stroke-miterlimit:10;}
	.st5{fill:#FF5500;}
</style>
<title>NEWS_icon</title>
<polygon class="st0" points="27.2,0.1 45.3,17.8 9.2,17.8 "/>
<path class="st1" d="M10.3,7.9h32.9c0.7,0,1.2,0.5,1.2,1.2v7.9l0,0H9.8l0,0V8.4C9.8,8.2,10.1,7.9,10.3,7.9L10.3,7.9z"/>
<path class="st2" d="M9.3,14.6h36l0,0v17.3c0,0.1-0.1,0.1-0.1,0.1H9.3c-0.1,0-0.1-0.1-0.1-0.1l0,0V14.7C9.2,14.7,9.2,14.6,9.3,14.6z
	"/>
<path class="st3" d="M24.1,9.6V13L24,13.1h-0.5l-1.2-2.3l-0.1-0.4V13l-0.1,0.1h-0.3L21.7,13V9.6l0.1-0.1h0.5l1.2,2.4l0.1,0.3V9.6
	l0.1-0.1L24.1,9.6L24.1,9.6z"/>
<path class="st3" d="M24.6,13V9.6l0.1-0.1h2l0.1,0.1v0.3L26.7,10h-1.6v1h1.5l0.1,0.1v0.3l-0.1,0.1h-1.5v1.1h1.6l0.1,0.1V13l-0.1,0.1
	L24.6,13L24.6,13z"/>
<path class="st3" d="M30.8,9.6v0.2c-0.2,1.1-0.5,2.2-0.8,3.3h-0.5l-0.6-2.4l0,0l-0.6,2.4h-0.5L27,9.8V9.6l0.1-0.1h0.3l0.6,2.8l0,0
	c0.6-2.5,0.6-2.7,0.6-2.8h0.5l0.6,2.8l0,0l0.6-2.8h0.4L30.8,9.6z"/>
<path class="st3" d="M33.3,12.1c0,0.7-0.3,1-1.1,1c-0.8,0-1.1-0.3-1.1-0.9l0.1-0.1h0.3l0.1,0.1c0,0.3,0.2,0.4,0.6,0.4
	c0.4,0,0.7-0.1,0.7-0.5c0-0.2-0.1-0.4-0.3-0.4l-0.9-0.5c-0.3-0.1-0.5-0.5-0.5-0.8c0-0.5,0.3-0.9,1.1-0.9c0.8,0,1.1,0.2,1.1,0.9
	l-0.1,0.1h-0.4l-0.1-0.1c0-0.3-0.1-0.4-0.6-0.4s-0.6,0.2-0.6,0.4c0,0.2,0.1,0.4,0.3,0.4l0.9,0.4C33.1,11.3,33.4,11.7,33.3,12.1z"/>
<path class="st1" d="M26.7,27L10.2,15c-0.3-0.2-0.3-0.6-0.1-0.9c0.1-0.2,0.3-0.3,0.5-0.3h33c0.4,0,0.6,0.3,0.6,0.6
	c0,0.2-0.1,0.4-0.3,0.5L27.4,27C27.2,27.2,26.9,27.2,26.7,27z"/>
<line class="st4" x1="15.3" y1="15.6" x2="40.5" y2="15.6"/>
<line class="st4" x1="18.6" y1="18.6" x2="36.4" y2="18.6"/>
<line class="st4" x1="21.7" y1="21.2" x2="32.5" y2="21.2"/>
<polygon class="st5" points="27.2,21.3 42.8,32.1 11.7,32.1 "/>
</svg>
