<svg id="Layer_1" data-name="Layer 1" xmlns="http://www.w3.org/2000/svg" width="19.3mm" height="11.96mm" viewBox="0 0 54.7 33.9"><defs><style>.cls-1{fill:#6795a5;}.cls-2{fill:#fff;}.cls-3{fill:#567d8c;}.cls-4{fill:#8c8279;}.cls-5{fill:none;stroke:#c2b59b;stroke-miterlimit:10;}</style></defs><title>news_2</title><polygon class="cls-1" points="27.2 0.1 45.3 17.8 9.2 17.8 27.2 0.1"/><path class="cls-2" d="M10.3,7.9H43.2a1.16,1.16,0,0,1,1.2,1.2V17H9.8V8.4a.64.64,0,0,1,.5-.5Z"/><path class="cls-3" d="M9.3,14.6h36V31.9a.1.1,0,0,1-.1.1H9.3a.1.1,0,0,1-.1-.1h0V14.7A.1.1,0,0,1,9.3,14.6Z"/><path class="cls-4" d="M24.1,9.6V13l-.1.1h-.5l-1.2-2.3-.1-.4V13l-.1.1h-.3l-.1-.1V9.6l.1-.1h.5l1.2,2.4.1.3V9.6l.1-.1.4.1Z"/><path class="cls-4" d="M24.6,13V9.6l.1-.1h2l.1.1v.3l-.1.1H25.1v1h1.5l.1.1v.3l-.1.1H25.1v1.1h1.6l.1.1V13l-.1.1L24.6,13Z"/><path class="cls-4" d="M30.8,9.6v.2c-.2,1.1-.5,2.2-.8,3.3h-.5l-.6-2.4h0l-.6,2.4h-.5L27,9.8V9.6l.1-.1h.3l.6,2.8h0a19,19,0,0,0,.6-2.8h.5l.6,2.8h0l.6-2.8h.4Z"/><path class="cls-4" d="M33.3,12.1c0,.7-.3,1-1.1,1s-1.1-.3-1.1-.9l.1-.1h.3l.1.1c0,.3.2.4.6.4s.7-.1.7-.5c0-.2-.1-.4-.3-.4l-.9-.5a.89.89,0,0,1-.5-.8c0-.5.3-.9,1.1-.9s1.1.2,1.1.9l-.1.1h-.4l-.1-.1c0-.3-.1-.4-.6-.4s-.6.2-.6.4.1.4.3.4l.9.4A.8.8,0,0,1,33.3,12.1Z"/><path class="cls-2" d="M26.7,27,10.2,15a.63.63,0,0,1-.1-.9.55.55,0,0,1,.5-.3h33a.58.58,0,0,1,.6.6.55.55,0,0,1-.3.5L27.4,27A.48.48,0,0,1,26.7,27Z"/><line class="cls-5" x1="15.3" y1="15.6" x2="40.5" y2="15.6"/><line class="cls-5" x1="18.6" y1="18.6" x2="36.4" y2="18.6"/><line class="cls-5" x1="21.7" y1="21.2" x2="32.5" y2="21.2"/><polygon class="cls-1" points="27.2 21.3 42.8 32.1 11.7 32.1 27.2 21.3"/></svg>
