<svg id="Layer_1" data-name="Layer 1" xmlns="http://www.w3.org/2000/svg" width="15.32mm" height="14.3mm" viewBox="0 0 43.41 40.55"><defs><style>.cls-1{fill:#93aebf;}.cls-2,.cls-4{fill:none;}.cls-3{fill:#fff;}.cls-4{stroke:#8c8279;stroke-miterlimit:10;}.cls-5{fill:#eca621;}.cls-6{fill:#a97c50;}.cls-7{fill:#231f20;}</style></defs><title>undervisning_ikon</title><rect class="cls-1" x="4.05" y="4.68" width="17.01" height="30.74" rx="0.07"/><rect class="cls-1" x="22.06" y="4.68" width="17.01" height="30.74" rx="0.28"/><line class="cls-2" x1="22.06" y1="4.86" x2="22.06" y2="35.86"/><rect class="cls-3" x="23.85" y="9.1" width="13.87" height="22.3" rx="0.16"/><line class="cls-4" x1="24.71" y1="12.98" x2="36.24" y2="12.98"/><line class="cls-4" x1="24.71" y1="15.74" x2="36.24" y2="15.74"/><line class="cls-4" x1="24.71" y1="18.26" x2="36.24" y2="18.26"/><line class="cls-4" x1="24.79" y1="20.77" x2="36.33" y2="20.77"/><line class="cls-4" x1="24.79" y1="23.29" x2="36.33" y2="23.29"/><line class="cls-4" x1="24.71" y1="25.81" x2="36.24" y2="25.81"/><line class="cls-4" x1="24.71" y1="27.99" x2="36.24" y2="27.99"/><rect class="cls-3" x="5.66" y="9.1" width="13.66" height="22.3" rx="0.16"/><line class="cls-4" x1="6.9" y1="12.98" x2="17.92" y2="12.98"/><line class="cls-4" x1="6.9" y1="15.74" x2="17.92" y2="15.74"/><line class="cls-4" x1="6.9" y1="18.26" x2="17.92" y2="18.26"/><line class="cls-4" x1="6.98" y1="20.77" x2="18" y2="20.77"/><line class="cls-4" x1="6.98" y1="23.29" x2="18" y2="23.29"/><line class="cls-4" x1="6.9" y1="25.81" x2="17.92" y2="25.81"/><line class="cls-4" x1="6.9" y1="27.99" x2="17.92" y2="27.99"/><path class="cls-5" d="M31.8,34.67l-.58-.44a.77.77,0,0,1-.19-.89l5.2-11.78a.45.45,0,0,1,.69-.24l.57.43a.77.77,0,0,1,.19.89l-5.2,11.79A.45.45,0,0,1,31.8,34.67Z"/><polygon class="cls-6" points="38.16 19.34 37.63 23.02 35.99 21.8 38.16 19.34"/><polygon class="cls-7" points="38.16 19.34 37.97 20.69 37.37 20.24 38.16 19.34"/></svg>
