<svg id="Layer_1" data-name="Layer 1" xmlns="http://www.w3.org/2000/svg" width="271.55mm" height="271.94mm" viewBox="0 0 769.76 770.86"><defs><style>.cls-1{fill:#757575;}.cls-2{fill:#696969;stroke:#6e6e6d;opacity:0.62;}.cls-2,.cls-3{stroke-miterlimit:10;}.cls-3{fill:none;stroke:#556180;stroke-linecap:round;stroke-width:2px;}.cls-4{fill:#dd362e;}.cls-5{fill:#ec6565;}.cls-6{font-size:19px;fill:#1d1d1b;font-family:LimeStone-Heavy, LimeStone;font-weight:800;}.cls-7{letter-spacing:0em;}</style></defs><title>illustratormap</title><polygon class="cls-1" points="228.94 323.48 217.09 321.56 207.66 313.7 184.86 309.02 163.34 307.15 146.66 312.19 123.92 307.13 112.16 305.9 99.4 310.68 93.98 304.94 90.63 304.96 90.63 303.96 94.41 303.94 99.67 309.51 112.03 304.88 124.08 306.14 146.62 311.15 163.24 306.14 185 308.03 208.11 312.77 217.52 320.62 228.92 322.47 265.57 314.63 281.99 312.11 282.05 312.11 300.58 313.68 328.79 318.83 324.06 310.49 313.74 306.1 284.05 283.67 282.79 273.59 267.36 259.1 268.94 238.19 265.79 218.02 273.62 198.29 250.52 140.23 237.49 133.4 224.98 124.02 191.67 121.2 185.62 116.1 173.73 109.85 174.2 108.96 186.22 115.3 192.07 120.23 225.35 123.05 238.02 132.56 251.31 139.51 274.69 198.29 266.82 218.13 269.95 238.16 268.39 258.7 283.74 273.11 284.99 283.13 314.3 305.26 324.76 309.7 330.71 320.2 300.45 314.67 282.03 313.11 265.75 315.62 228.94 323.48"/><polyline class="cls-1" points="361.76 118.03 387.71 122.33 423.48 108.57 431.74 120.13 434.25 129.15 446.55 136.62 477.89 136.02 493.56 131.68 502.6 124.44 501.27 90.45 504.05 90.57 506.34 123.12 531.41 125.17 544.79 132.76 563.48 153.5 579.99 167.36 586.86 170.73 587.95 174.35 577.46 169.89 567.45 161.33 559.38 155.06 555.28 149.76 548.65 141.8 544.79 137.34 539.13 133 533.7 129.03 527.19 128.18 518.51 127.1 512.12 127.1 508.03 126.37 506.82 134.69 509.23 141.44 512.85 150.48 515.5 156.63 521.16 162.54 526.71 170.85 530.93 177.48 533.46 183.15 536.72 190.62 551.78 200.63 555.52 206.78 557.45 210.63 557.45 218.23 558.41 223.77 560.94 230.76 564.56 235.46 573.24 241.61 579.14 245.95 582.16 251.98 584.33 256.2 580.35 263.31 578.18 255.84 574.68 250.65 570.71 246.68 565.04 242.58 560.34 239.56 557.09 234.62 554.43 228.71 552.51 223.05 551.18 215.82 551.06 209.91 548.41 205.09 542.74 202.44 538.52 198.7 534.54 195.81 533.82 190.86 529.48 181.7 524.54 172.3 518.87 164.71 514.41 160.37 511.4 152.89 507.79 145.06 505.01 138.31 503.81 134.45 503.57 126.98 496.69 132.04 491.15 134.09 480.54 136.98 472.95 137.59 461.13 138.19 446.19 138.19 437.15 133 432.81 130.11 429.92 120.35 425.7 113.96 423.04 109.74 387.73 123.36 361.21 118.9 361.76 118.03"/><polygon class="cls-1" points="495.11 132.2 504.01 135.44 505.12 136 505.01 138.31 493.07 132.29 495.11 132.2"/><polyline class="cls-1" points="636.82 71.75 631.03 76.92 625.1 79.36 622.98 78.41 612.9 85.41 609.94 84.77 601.98 92.41 574.21 101.95 564.56 105.66 559.79 108.63 551.52 117.43 537.1 121.99 534.45 123.89 531.41 125.17 529.89 126.23 531.58 126.86 537.84 123.05 551.83 118.49 560.21 109.47 564.56 106.82 574.63 102.8 601.56 93.68 585.34 124.21 583 152.31 583.64 158.25 585.02 164.18 588.1 178.29 593.82 188.25 603.26 204.79 605.48 214.97 606.44 220.8 605.48 229.07 604.32 235.86 602.41 241.05 602.3 244.02 597.32 236.71 595.2 229.18 592.02 225.68 590.32 226.42 589.47 228.22 589.9 231.09 590.53 235.01 591.27 237.87 593.93 241.16 596.15 243.6 579.08 243.92 572.93 243.92 570.28 249.96 566.47 252.61 558.62 256.96 554.48 261.73 552.89 267.45 549.92 271.59 549.18 276.57 549.5 280.07 549.71 281.77 550.24 283.46 552.05 284.1 550.88 275.62 551.62 272.12 554.91 266.92 555.65 263.11 559.04 258.87 564.88 255.16 569.43 252.72 572.3 249.96 574.74 246.57 580.14 245.61 589.05 245.82 593.4 245.82 596.37 246.14 594.46 249.32 587.46 253.35 584.33 256.2 581.95 258.65 579.61 263.21 579.61 266.5 579.93 270 579.83 278.27 578.02 283.36 575.37 287.6 573.57 290.99 571.02 297.14 568.27 304.56 568.27 308.91 568.8 315.91 570.07 320.79 570.39 324.71 570.6 328.21 570.71 331.39 571.24 332.98 574.21 332.77 575.37 330.96 575.9 327.15 575.8 325.34 584.17 321.63 592.34 318.66 605.7 318.56 612.06 317.18 616.51 314.74 620.01 309.76 624.14 305.62 628.91 300.64 629.76 296.19 631.67 290.14 628.49 296.93 628.07 299.26 624.99 303.5 621.81 306.58 618.21 310.5 614.07 314.21 610.78 316.01 608.03 316.86 603.79 316.76 600.18 316.86 597.42 316.76 596.47 316.54 595.73 311.03 594.99 304.25 595.52 301.28 598.7 296.4 601.56 291.84 604.53 287.07 605.59 285.58 610.89 290.67 605.59 284.52 608.03 279.96 596.26 298.2 593.82 302.23 593.4 306.37 594.24 315.59 593.61 316.54 586.4 318.35 584.28 318.45 582.69 317.07 575.48 319.19 573.04 306.37 578.55 295.02 581.73 288.02 584.17 282.72 584.28 275.62 584.38 271.17 585.97 268.3 597.32 279.01 600.29 279.75 601.35 277.95 597.96 272.33 592.65 267.67 590.32 264.8 590.11 263.85 597.21 259.61 597.11 254.63 596.05 253.03 594.99 258.12 591.38 260.67 587.88 262.47 586.82 260.35 593.5 256.21 603.04 252.82 606.12 257.91 609.41 264.17 611.74 267.77 613.97 272.23 616.09 277.21 619.27 279.86 618.42 274.35 618.42 269.79 616.51 265.76 613.43 261.3 611.1 256.53 609.09 252.19 608.66 243.39 609.62 231.51 610.89 221.97 611.42 216.35 610.47 212.53 607.82 204.69 605.38 199.17 602.51 193.02 599.54 186.56 596.26 182.1 593.82 177.86 591.38 168.21 589.79 158.67 589.15 151.78 590 139.37 590.96 133.01 590.96 126.23 595.2 118.28 599.33 112.76 603.04 103.64 608.13 94.1 610.25 90.71 612.59 86.89 615.66 85.41 622.24 80.42 624.57 80.95 632.94 76.61 635.81 75.86 638.25 72.47 636.82 71.75"/><path class="cls-1" d="M551.53,136.44l-9.36,2.6-14.38,13.51-14.55,1.73L491.92,163l-7.79,16.11-13.87,14-2.59-1.22-37.8,4.74L409.62,221l-7.1,22.87L399.05,264,393,273.67l-11.78,9.18L366,294.46,363,297.92,350.19,318l-10.57.17-10.39-14.72-11.61-3L288,279.21l-3.12-7.45L270.49,257.9l-1.91-13.17-.52-27.38,8-19.23-16.63-39-7.28-19.41L240,132.45l-13.86-8.66-20.62-2.43-14.21-1.21-11.26-8-7.45-3.29-.76.38-7,3.52,7.46-2.82,7.33,3.29,12,9,33.9,2.39,24.6,17.61L272,197.72l-6.55,17.81.71,29.06.43,14,14.81,13.82,2.14,5.69.14,2.85.71,3L314.45,306l9.83,1.43,6.27,10.82-2.71,4-27.49-9-20.09-1.14-10.68,1.14-40.31,10.82-13.82-4.27L209,313.53l-4-1.42-20.37-4.7-23.5.71-15,2.56-35.61-7.55-11.4,6.13-3.84-6L87.53,302l.29,2,6.12.85,3.71,7L107.9,317l5.84,8.83,12.82,49.15,9.12,19.94,10,13.39,16.81,17.81L174,461.54l.42,8.26-4.27,13.1,2.71,7.84-14.39,9-29.2,3-15.39,1.57-11,5.55L83.54,512.1,90.63,518l17.27-1.87,8.26-5.55,36.75-3.85,7.84-1.28,17.95-9,13.1,1L212.6,507l10.54,12,9,20.8L244.79,541l14.1,10.68L282.11,561l32.48,19.8,5,17.81,5.69,6.27,4.56-1.14-.71-2.71-3.28,1.85-4.7-5.13-5.69-19.37L282,559l-23.22-9-13.39-11-12.53-1-8.69-20.51L213.6,505.27l-20.66-9.41L181.83,494l23.22-14.67s6.41-11.25,6.84-11.25,22.36-6,22.36-6l22.37-14.39,8.82-1.6,20.23,6.58,9.55,1.86,7.55-1.29,12.82-1.85,6.41-1.57L334.53,447l10.26,1.85,10,.28-.71-4.84-20.51-1.71-13.82.85-11.4,2.43-10.11,1.85-6.41-.14-14-4.56L269,441.17l-5.52-1.05,6-41.15,7.1-7.85,12.08-12.93L295,363.66l.93-18.17v-9.71l4.81-15,1.56-4.23,4.44-12.08,9-16.81-2.4-9.79-1.91-.35,2.62,9.8L303.87,307l-9.8,28.22-1.1,27-6,15-11.64,12.9-7.57,8.55L261,440.27l-6.73,1.82L230.71,457l-17.81,3.51-4.49,1.4-3.92,5.89-4.07,8.69-25.38,14-3.36-7.72,4.06-13.18-1-9.53-11.08-34.92-17-17.95-10.24-13.74-8.69-19.21-5.61-22.85-7-26.51-5.89-9.11-9.12-5.33,10-5.33L145,312.8l15.85-3.08,23.7.7,22.29,4.91L214,322.9l15.15,4.91,18.37-5.33,23-6.73,10-1.12,16.4,2.66,30,10.66,4.35-1,4.35-3,24,5.19,22.86-6.45,7.15,2,16.83,12.62,5.33,4.07,25.1-1.4-44.45,53-17.81,21.74-20.33,22-4.07,6,.28,3.09,3.08-5.33,15.15-16.41,16.55-18.93,25.52-31.41,28.74-34.07L451,340l7.85,31.41,17.25,12.2,9,21,.56-4.77-7.71-17.81L460.11,370l-7-31.27,3.51-.28,17.11-16,26.5-5.75,1.68,13.46,4.77,2.81v-2.81l-2.25-2.38-1-12.62,2.67-2.1,20.33-.15,8.41,7.44.56-6-5.89-5.75-4.9-1.26-11.36.42-9.4.14-7.57,6.45-7,2.24-8-1.12-9.4,1.26-4.76,1.68-5.75,5.89-.7-9.95L459,309.58l-3.78-3.37-2-3.92,4.21-7.71,1-7.86-.14-4.2.56-5.89,5-9.68-.42-10.8,10.1-16.54,2.66-9.4,1.4-5.33.14-17,.42-5.61-6-7.29-3.92-1.69,4.76,5,3.23,4.35v8L476.1,224l-3.79,15-9.95,16.4.28,11.08-5.19,10.8-.28,12.48-1.4,5.05-3.65,6.87,1,3.78,4.49,4.63,1.54,4.91.28,10.51-4.9,5.89-10.8.85-29.31,2.38-9-6.73-12.62-8.41-13-2.25-20.62,5.47-7.43-3.22,14.73-23,16.68-12.9,10.8-8.42,6.87-11.77,2.8-18.37,7.3-22.86,19.49-24.12,35.33-4.48h7.15l7.3-7.86,5.32-5.19,7.16-16.4,18.37-7,17.52-2,14.17-13.88Z"/><polygon class="cls-1" points="525.58 273.37 577.07 291.97 574.45 296.89 566.46 294.58 559.39 308.11 562.46 323.48 560.77 325.17 558.01 307.49 564.31 294.12 552.63 288.28 536.18 307.03 536.49 313.49 544.94 321.79 572.45 321.63 572.45 327.47 542.64 326.86 540.64 324.55 539.56 338.85 561.85 328.86 573.38 329.62 582.6 338.08 602.85 338.93 615.03 328.24 656.47 326.29 660.99 331.93 615.95 333.16 605.5 344.53 580.75 342.84 570.76 334.7 562 334.08 539.25 344.23 514.51 364.51 494.22 392.03 481.16 426.92 471.93 432.45 466.86 437.21 464.56 460.58 459.33 469.49 457.18 490.7 448.26 511.3 437.66 520.83 430.28 549.26 425.52 562.02 419.21 575.24 417.22 588.46 414.6 610.13 409.38 624.88 403.54 640.56 400.15 650.09 400.92 662.54 401.23 672.68 406.76 685.44 413.68 699.27 419.98 711.42 419.37 719.25 418.91 725.71 421.83 737.39 478.39 737.7 480.08 741.07 476.08 738.93 422.44 738.93 425.98 751.23 422.45 759.4 417.83 755.53 419.98 750 416.91 740.77 414.3 733.4 403.84 726.48 397.24 725.87 389.55 726.02 384.63 727.25 381.4 726.94 378.18 720.64 373.26 708.65 367.26 695.43 356.35 684.98 354.51 656.55 353.58 642.4 353.12 635.34 345.28 626.57 336.68 615.82 334.06 609.82 328.22 602.6 333.6 598.6 338.06 594.6 339.6 586.76 333.76 581.08 330.99 576.31 329.15 570.47 326.53 571.09 314.59 580.76 313.01 578.47 326.69 568.48 330.07 568.32 329.91 564.94 331.3 564.94 331.45 568.01 342.82 568.01 350.82 572.63 393.85 569.09 402.15 567.4 414.76 569.86 416.91 572.47 402 568.78 393.24 571.24 350.82 574.62 344.52 571.24 340.52 569.71 333.76 569.71 331.3 570.01 332.68 574.78 333.91 577.24 351.19 573.39 347.43 576.13 336.38 579.48 337.75 582.06 340.44 584.7 341.35 586.17 341.16 589.62 340.6 594.2 338.36 596.71 333.7 600.73 331.83 602.78 334.91 608.38 336.31 610.34 345.64 609.78 351.24 605.3 349.75 600.17 347.04 594.75 345.74 585.8 345.45 579.17 349.66 572.8 352.03 573.67 346.99 579.37 347.08 586.82 348.27 594 352.2 604.73 346.12 610.46 336.73 611 337.71 614.75 346 624.88 353.92 633.36 355.03 644.59 355.85 656.95 357.38 684.15 368.33 694.39 381.46 724.89 383.77 726.11 389.88 724.21 403.72 725.29 413.09 730.72 413.77 711.99 406.84 696.52 398.29 680.5 394.63 669.37 394.49 657.83 393.82 649.15 408.44 609.6 409.57 604.78 413.43 574.56 420.18 561.54 426.93 541.29 432.56 518.62 443.01 509.3 451.36 491.13 453.29 469.11 459.72 458.99 461.81 433.59 456.19 432.62 438.83 442.75 421.47 446.13 395.75 448.38 362.79 449.66 356.36 449.82 356.2 457.38 347.85 463.16 343.99 463.32 333.06 491.62 335.31 499.49 330.32 523.76 332.89 532.28 332.57 545.63 331.13 551.57 331.19 568.84 329.89 569.39 330.58 547.34 331.26 540.63 331.4 532.68 328.57 524.16 330.38 514 333.19 500.03 330.84 491.15 342.28 461.9 347.84 460 353.88 456.34 354.05 444.3 379.63 443.63 403.31 442.2 429.21 439.81 448.6 430.6 454 427.42 474.66 425.99 481.34 410.73 488.49 391.5 509.31 361.62 533.78 342.23 534.26 315.85 527.26 309.65 531.87 303.14 539.02 295.03 547.45 285.98 527.58 280.25 524.4 278.51 522.5 276.12 522.66 274.21 524.25 273.1 525.58 273.37"/><polygon class="cls-1" points="328.99 325.25 333.93 317.43 327.46 305.35 313.85 302.97 317.19 307.1 323.88 310.07 328.22 318.59 306.99 316.08 328.99 325.25"/><polygon class="cls-2" points="666.08 353.8 661.27 349.43 663.89 345.94 665.2 341.57 663.89 336.33 660.4 330.65 656.47 330.22 656.47 326.29 655.16 318.87 652.54 313.63 650.79 309.26 646.43 306.2 642.94 297.91 639.44 293.11 637.65 293.11 637.7 294.46 634.34 298.46 630.98 304.4 627.11 308.67 625.04 314.86 622.07 318.48 621.68 320.55 619.88 322.48 617.29 326.36 613.16 330.49 611.98 332.5 614.12 333.27 602.33 354.67 606.7 356.41 606.26 359.47 615.43 368.64 620.67 369.95 623.73 374.75 624.16 378.68 630.27 378.68 635.08 380.43 641.19 374.75 647.3 368.2 653.41 363.4 659.96 362.09 663.46 360.34 666.51 359.03 666.08 353.8"/><path class="cls-2" d="M602.18,338.63l-.26-2.46.52-7.1,3.87.65,4.52.51,3.1-3.23,3.23-4.26,3.23-4.13,2.58-6.72,5.3-6.71,3.23-8.52,1.33-2-.37-3.74,2.18-4.8.44-3.93V277l-3.5-7-6.11-2.19,4.8-3,.44-4.81,2.62-7-.44-8.3-.87-4.8-.87-4.8-1.75-9.61-2.18-6.11-1.31-8.73.43-7.42-1.3-8.74-4.37-6.11-3.06-8.73L612.37,170l-.43-3.93-3.5-4.8-4.8-12.66,2.62-11.79.87-6.11v-3.06l3.06-3.49v-3.49l2.62-4.81,1.31-3.49,2.18-6.11,1.31-5.24,3.06-1.31L623.29,94l3.05-2.62,3.06-5.67,5.24-6.11,2.18-7.86L608.44,41.62l-7-2.18-4.8-3.06-24.45.44L550.38,29,546,24.16l-10.92-6.55L524.62,15l-5.24-1.75-5.24,3.06H508L473.53,31.58l-6.11,9.17h-3.06s-6.11,5.67-6.11,7-5.24.88-5.24.88L447.34,53l-7.86,5.68L430.74,70l-67.23,43.66L361.76,118v6.55l5.68,7.42,10.48,2.62,5.23-1.75,8.74-4.8,10-4.37,6.11-3,5.24.87,7,1.31,7,5.24v7.86l10.48,14-3.06,16.59,5.68,6.55,1.75,12.66-3.5,3.49-3.93,3.5,1.75,8.29,1.75,5.68,3.49,8.73,3.93,7.42-.44,13.54,4.37,2.18.87,8.3,3.93,8.29-2.62,5.68,2.62,3.93,3.06,3,3.05,5.68-3.93,4.37v9.6l-2.18,4.8-1.74,3.93h-3.5l-5.67,2.62v6.55l3,1.75,2.62,7v6.12L443,316.25l-4.37-3.5h-5.67l-3.5-4.36L429,304l5.24-3.49.43-7.42-7.42-2.19-5.67-.87h-4.81L415,294l-6.12,4.37-8.73,7.42-.43,5.67-2.62,6.12-.44-3.5-.44-7.86,5.24-9.16,2.6-1.86,3.51-2.51,1.75-7.86,2.18-5.24,2.19-4.8.87-5.68,3.49-1.74h3.06l4.37,5.67,6.54-.87,7-7.42v-4.81l-.87-3.93v-7l3.05-2.62-2.62-7-3.05-13.09-2.62-3.5-2.62-12.22v-7.86l-.44-6.11-3.49-5.24L419,188.32v-14l7.42-15.72L422,153.39l-7.42-3-5.24-3.5-6.11-4.8-10-1.75-8.3.44L384,146v4.37l4.8,9.6,3.06,7,3.05,7.42L401.49,187v7l-.87,6.55-2.18,7.85-4.81,5.68-8.29-.87L374,216.7V225l-6.55,5.67L367,247.26,368.31,263l8.3,3.06-6.12,3.49L367,274.77l-5.24,6.55-.44,6.11.44,7.86-4.8,4.37-3.49,7v4.8l-4.37,2.19-7.86-1.75,2.62-8.3,4.8-5.67v-4.37l-2.18-4.8-2.18-5.24-7.43-7.42-3.93,1.75-7.42.87-6.55-.87h-10l-6.55-1.31-6.55-4.37,3.06-4.8h10l5.68-1.31,5.67-1.31,7.86-.88,3.93-3.05,3.06-3.06-.44-3.49-5.24-2.18,1.31-6.55-1.31-5.24L326,232.85l-5.24-2.62-3.06,1.31-6.11,1.75-6.11,2.62-6.11,5.68-3.93,1.74-6.12.88h-4.36l-4.37-4.81,1.31-4.36,4.37-3.06,5.24-1.75V219.76l4.36-3.93h7.43l5.67,3.93,7.42.87,4.37-2.62,1.31-6.55-2.62-6.55-12.66-24-6.55-5.24-.44-20.09L312,156l2.18,4.37,7,1.31,4.8-1.31,3.49-4.37-2.62-10.48,3.93-6.11,1.31-4.37,10.48-10.91-6.11-9.61-3.06.88-8.73,7.42-9.17,6.11-9.6,3.49-11.79,3.5-10.48-.44-7-.44-3.05-6.54.87-5.24-25.32,4.8-14.85-3.93L209.38,122l-17.46-4.37-22.27-10.48V98.38l-4.8-3.49-3.49,7.42,3.49,10.48,5.24,1.31,16.59,9.17,5.68,4.36,6.11,1.75,26.2.87,9.6,3.93,11.79,9.17,1.75,20.52v7.42l-2.19,6.55-3.93,11.35-7.86,6.55-17,1.75-9.17,6.11-13.1,3.06-.44,27.07-.43,3.93-2.62,9.17-5.68,5.67-5.67,4.37-11.79.43-9.17,2.62v4.37l-1.31,3.49-4.8,1.31h-6.12l-.87-3.49-3.49-3.06-5.68.88-1.31,3.93h-5.24L126,264.29l-1.74-5.68-3.5-2.18-10.48,2.18-7,3.06L92.81,265.6l-6.55,3.06L80.15,270l-5.68.87-6.55-3.49-7-3.06-8.73-3.93-8.3-.44-6.11-1.31H24.26l-10.48,3.5,5.68,4.8,5.68,4.37,8.73.87,4.8.44,7.86,1.31,7.86,1.31,3.93.87,1.31,4.36,3,3.06,2.62,6.11,3.06,3.06,1.75,3.93s1.74,3.49,3,3.49,3.93,2.19,3.93,2.19l3.5,4.8,3,2.62,3.06-3.5,3.93-1.74.43,9.6-4.8-.87-5.67-.44-3.06,1.31-5.24-2.62L63.12,311l-8.29-1.31L47,309.26H41.73l-7.42-3.49,2.61,8.29L42.16,318H50l8.74,1.31,7.85,2.62,5.68,2.19,5.24,2.62,4.8,3,9.17,2.62,7.86,8.3,2.62,3.49,4.8,8.29,3.49,9.17,3.06,11.79v7.86L112,385.67l-3,6.55-6.55,2.18L95,393.09l-7.42,1.75-1.75,12.22,6.12,2.62,4.8.44,3.06-2.19.87-8.29L104.6,404l10,12.23,3.93,6.11,2.62,12.23,3.49,4.36,3.06,5.68,2.62,10.91-.44,4.37-.43,6.11v10l4.36,10.48L128.18,497l-10.48,4.37-8.3,4.36-4.8,1.75L100.67,504H97.61L91.94,507l-2.19,5.24.88,5.68L96.3,521h5.24l5.68,4.8,4.36-3.06,3.5-4.36,3-3.5h13.54v6.55l-4.8,1.31-.44,6.55h-5.68l-13.53.87,5.24,5.24L119,542l6.11,2.62,11.35,9.61,4.37,4.8,2.62,3.06-1.75,15.28,3.49,3,1.31,4.37-6.11-1.31,3.06,7.42,3.93,6.12v8.73l.43,3,5.24,4.37,5.24-1.31,3.06,2.18,10.48,4.81.87-14,6.55,7,4.8-5.24,5.24,5.68,4.8-5.24,13.1-.44,3.06-.87,2.18-5.68h7.42l6.12,5.68,4.36,1.31,2.62,3.49,6.55-.87,7,3.93,4.8,3.49,4.8,1.31h21.4l3.93,5.67,7.42,2.19,5.67-1.31,3.5-1.75,6.11-.44V611.83l3.93-5.68,4.36-.43,5.24,2.18-.87,7-3.93,3.93-4.8,3-.44,5.68,3.93.43h3.93l3.49-7.42,6.55,3.49L322,626.67l-5.24,5.24V638l3.93.87h3.93l4.8,2.18,4.37.88,5.67,1.74L343,642l1.31-3.5,3.93,3.5,3.93,1.74,3.49,4.37-1.75,6.11h-3.49l-5.24-1.75-6.55,2.62L336,660.73,332.51,662h-3.93l-3.49-.44-3.93-.43L319,664.66l2.62,5.24,1.75,3.93,3.49,5.67,3.5,6.12,4.36,3.93,3.06-.44.87-3.06,3.93-.43,5.68,3.49,3,4.8,3.93,4.37,2.62,3.93.44,3-1.31,3.5L349.54,707l-7-3.06-4.8-1.31-7.86-3-6.11-3.93-5.24-.87-3.93-1.31-6.55-1.31,1.31,3.92,3.93,5.24,4.8.88,6.11,3,9.61,4.37,7,1.31,6.12,2.62,9.16,4.8,3.5,3.49,4.36,3.93,4.37,3.06,1.31,3.06,5.24,2.62,3.49,3.49,4.37,1.75h4.36l3.93-.44h10.05l5.23,3.93,3.06,3.49,3.06,4.37,5.24,3,4.8,5.24,8.29,1.31,13.54-1.31,4.37-3.49,6.54-4.8,4.37-4.81,4.8-4.36,6.12-.87h9.6l3.06-3.93.43-5.24-4.36-6.12-3.93-7.42-2.18-7.42-2.62-8.3-.88-9.6v-6.55l3.5-.44,6.54,1.75,4.37-3.93.87-6.11,1.31-7.86.44-3.93L484,659.42l-10-4.37-10,1.31h-13.1l-5.68-1.31-.87,3.5h-3.06l-6.11-2.19-.44-7.86-3.05-1.74-4.37-4.37.44-3.49,4.36-4.37,5.24-4.8,7.43-2.62,9.16,1.31v17l2.19,5.67h3.49l3.06-7.85-1.75-23.14,7.42-.44,4.37-7.86,3.49-6.55,7-6.55,9.6-7.42,17-6.11,5.68-.88,17.9.44,19.21-1.31,6.55-10.91,11.35.43,13.1-14.84v-4.37l4.36-1.31-1.74-3.93-1.75-4.36-1.31-5.68-1.75-3.93,3.93-.87V523.2L584,519.71l-2.18-5.24-7.42-9.17-8.3-10.92-6.11.44.44-3.06-1.31-3.05-3.5-3.5L544.7,483.9l-1.31-3H529l-2.62-3.5-12.66-3.49-4.8-2.62-.88-3.93-10.47-3.93-.88-4.36-4.8-4.81.44-25.32,1.31-5.24,1.74-3v-3.5l3.06-1.31.87-3.93,2.19-7.42,2.61-8.29,2.62-5.24,4.81-7,7.42-6.55,6.55-6.11,3.93-3.06,6.55-4.36,5.67-3.06,4.37.44,1.31-3.5.44-6.11,3.93,2.62,5.67-1.75,7.42-10,3.06,3.06h11.35v3.06l4.37,1.31,6.11,1.74,5.68-3.05,6.54-4.37,1-5.26ZM166.7,571.79l-3.85,4.38-2.65,4.11-2.79,6.9H154.1L154,582.8l4.37-3.18,2.92-3,1.59-3.05-2.78-1.06.79-4.51s2.79-6,2.92-6.37l4.11,2.39-1.59,2.78Zm2.73-201.22-1.31,6L167,382l-2.81.18-2.8-.37L158,379.18l-7.11-6.92v-5.43l9.73-9,4.86-.56,3.18,3.18.94,4.49Zm23.58-44-3.93-7.48,5.8-1.5,2.62,2.25Zm72.43,119.52,4.41,2.61,5-.6.2,4.81-10.42,1Zm-10,23.66-4.62-6,5-8.22,1.8,8.42,5.81.2v2.41l-4.81-.2Zm4.41,34.47L257,500.44l.6-1.4h8l4.21,5.61,4.61,7.62-2.41-.2-3.81-2.61Zm28.06,21.85-4.41-.4-3.61-1.2-8.22-1,1-2.81,2.81-5.41,4.41,3.81,5.61,2.8,6,4.21Zm23.45-103-2.81-2.8-4.41-3.61-4.41-2.21v-3.4l8,1,5.81,7.82ZM479.79,125.15l-9.15-3.35.61,4L449,137l-12.5-5.18L445,121.49l4.27-7,2.44-5.18-.61-3.66H445L432.83,113l-.61-2.44-.31-4.57,9.46-5.18,3.05-7.93,1.83-6.4,7.31,3,2.44,5.8,3.36,3.66,6.4.61,4.27,3,.92,9.14,4-.3,2.74-1.53,5.8,6.41Zm92.6,55.67,4-.18,1.08-1.63,6.89.18-2.9,4L578,184.45l-5.62-.55Zm-16.24-75.17-6.64,9-2.36-2.78-1.71-7.5-.64-7.08,1.71-7.92,2.36-9.86,3.85-1.71,10.93.21-1.28,3.86L563.44,84l3.43,6.21-1.72,5.57-2.36-2.57-3.42,5.57Zm14.79,118.14,1.27,3.27,2,4.53v2.72l-3.63-.36-4.53-.18-3.26-3.63-2.54-4.71-1.45-4,2.72-2.18,7.25-3.81,5.8-2.9,7.44,4-3.09,1.27-4.17.73-4,2.53Zm11.6,20.49-3.63-3.8,4.54-.37,3.08.91.91,3.08Z"/><line class="cls-3" x1="568.14" y1="545.72" x2="571.52" y2="567.54"/><circle class="cls-4" cx="566.51" cy="535.19" r="10.66"/><circle class="cls-5" cx="562.28" cy="532.76" r="2.28"/><text class="cls-6" transform="translate(563.6 589.71)"><tspan class="cls-7">K</tspan><tspan x="10.58" y="0">oldkrigsmuseum </tspan><tspan x="0" y="22.8">Stevnsfort</tspan></text><line class="cls-3" x1="583.54" y1="529.95" x2="581.3" y2="551.92"/><circle class="cls-4" cx="584.62" cy="519.35" r="10.66"/><circle class="cls-5" cx="581.14" cy="515.93" r="2.28"/><line class="cls-3" x1="468.87" y1="556.88" x2="472.12" y2="578.72"/><circle class="cls-4" cx="467.3" cy="546.33" r="10.66"/><circle class="cls-5" cx="463.08" cy="543.88" r="2.28"/><text class="cls-6" transform="translate(593.16 552.71)">Stevns Klint</text><text class="cls-6" transform="translate(435.66 597.05)">Geomuseum <tspan x="0" y="22.8">Faxe</tspan></text></svg>
