<svg id="Layer_1" data-name="Layer 1" xmlns="http://www.w3.org/2000/svg" xmlns:xlink="http://www.w3.org/1999/xlink" width="19.28mm" height="11.97mm" viewBox="0 0 54.65 33.94"><defs><style>.cls-1{fill:#f3a57b;}.cls-2,.cls-4{fill:#fff;}.cls-3{fill:url(#linear-gradient);}.cls-4{opacity:0.5;}.cls-5,.cls-6{fill:#8c8279;}.cls-6,.cls-7{stroke:#c2b59b;stroke-miterlimit:10;}.cls-7{fill:none;}.cls-8{fill:url(#linear-gradient-2);}</style><linearGradient id="linear-gradient" x1="27.21" y1="32.03" x2="27.21" y2="14.62" gradientUnits="userSpaceOnUse"><stop offset="0" stop-color="#ec8b5e"/><stop offset="1" stop-color="#be1e2d"/></linearGradient><linearGradient id="linear-gradient-2" x1="637.65" y1="428.02" x2="637.65" y2="401.55" gradientTransform="translate(8.29 792.27) rotate(-121.63)" xlink:href="#linear-gradient"/></defs><title>NEWS_icon</title><path class="cls-1" d="M30.75,3.56,45.27,17.77H9.16L23.68,3.56A5.06,5.06,0,0,1,30.75,3.56Z"/><path class="cls-2" d="M11.87,7.93H42.11a1.21,1.21,0,0,1,1.21,1.21v7.95a0,0,0,0,1,0,0h-32a0,0,0,0,1,0,0V8.44A.51.51,0,0,1,11.87,7.93Z"/><rect class="cls-3" x="9.16" y="14.62" width="36.11" height="17.42" rx="2.46"/><rect class="cls-4" x="7.21" y="20.06" width="7.35" height="2.1" rx="1.05" transform="translate(-10.23 31.99) rotate(-90)"/><rect class="cls-4" x="9.56" y="25.6" width="2.64" height="2.1" rx="1.05" transform="translate(-15.77 37.53) rotate(-90)"/><path class="cls-5" d="M24.24,9.57v2.91l0,.06h-.41l-1-2-.11-.32v2.23l-.06.06h-.3l-.05-.06V9.57l.05-.06h.4l1,2,.1.27V9.57l.06-.06h.29Z"/><path class="cls-5" d="M24.71,12.47V9.56l.06-.05h1.7l.05.05v.3l-.05.06H25.12v.82h1.25l.06,0v.3l-.06.06H25.12v1h1.35l.05.06v.28l-.05.06H24.78Z"/><path class="cls-5" d="M30,9.58v.14c-.21.92-.43,1.83-.66,2.82h-.46l-.49-2.07h0c-.16.68-.34,1.39-.5,2.07h-.46l-.66-2.81V9.58l.07-.07h.3l.51,2.35h0c.49-2.11.51-2.29.52-2.35h.39l.51,2.35h0l.51-2.35h.31Z"/><path class="cls-5" d="M32.1,11.75c0,.57-.25.85-1,.85s-.93-.3-.94-.79l0-.06h.3l.06.06c0,.28.2.37.53.37s.57-.1.57-.43a.38.38,0,0,0-.24-.39l-.81-.4a.67.67,0,0,1-.41-.7c0-.46.22-.79.89-.79s.92.19.93.76l-.05.06H31.7l-.05-.06c0-.29-.1-.36-.52-.36s-.48.14-.48.36a.4.4,0,0,0,.22.39l.75.34A.72.72,0,0,1,32.1,11.75Z"/><path class="cls-2" d="M24.05,25.07l-12.36-9a1.25,1.25,0,0,1,.74-2.26H42.91a.83.83,0,0,1,.49,1.5L30,25.07A5,5,0,0,1,24.05,25.07Z"/><line class="cls-6" x1="15.3" y1="15.59" x2="40.48" y2="15.59"/><line class="cls-7" x1="18.61" y1="18.61" x2="36.36" y2="18.61"/><line class="cls-7" x1="21.68" y1="22.25" x2="32.52" y2="22.25"/><path class="cls-8" d="M32.2,24.78l10.58,7.34H11.69l10.58-7.34A8.72,8.72,0,0,1,32.2,24.78Z"/></svg>
