<svg id="Layer_1" data-name="Layer 1" xmlns="http://www.w3.org/2000/svg" width="19.28mm" height="11.97mm" viewBox="0 0 54.65 33.94"><defs><style>.cls-1{fill:#ec7626;}.cls-2,.cls-4{fill:#fff;}.cls-3{fill:#f26722;}.cls-4{opacity:0.5;}.cls-5,.cls-6{fill:#8c8279;}.cls-6,.cls-7{stroke:#c2b59b;stroke-miterlimit:10;}.cls-7{fill:none;}.cls-8{fill:#d65d27;}</style></defs><title>NEWS_icon</title><path class="cls-1" d="M28.94,1.79l16.33,16H9.16l16.33-16A2.48,2.48,0,0,1,28.94,1.79Z"/><path class="cls-2" d="M11,7.93H42.93a1.21,1.21,0,0,1,1.21,1.21v7.95a0,0,0,0,1,0,0H10.49a0,0,0,0,1,0,0V8.44A.51.51,0,0,1,11,7.93Z"/><rect class="cls-3" x="9.16" y="14.62" width="36.11" height="17.42" rx="1.6"/><rect class="cls-4" x="7.21" y="20.06" width="7.35" height="2.1" rx="1.05" transform="translate(-10.23 31.99) rotate(-90)"/><rect class="cls-4" x="9.56" y="25.6" width="2.64" height="2.1" rx="1.05" transform="translate(-15.77 37.53) rotate(-90)"/><path class="cls-5" d="M24.06,9.57V13l-.06.07h-.48l-1.16-2.32-.14-.37V13l-.06.07h-.35L21.74,13V9.58l.07-.07h.46l1.2,2.38.11.32V9.57l.07-.06H24Z"/><path class="cls-5" d="M24.61,13V9.57l.07-.07h2l.06.07v.35l-.07.07H25.09v1h1.47l.07.06v.35l-.07.07H25.09V12.6h1.59l.06.07V13l-.06.07h-2Z"/><path class="cls-5" d="M30.8,9.59v.16c-.25,1.08-.51,2.16-.78,3.32h-.55l-.57-2.44h0l-.58,2.44h-.54L27,9.76V9.59l.09-.09h.35L28,12.27h0c.58-2.48.6-2.69.61-2.76h.46l.6,2.76h0l.61-2.77h.36Z"/><path class="cls-5" d="M33.29,12.15c0,.66-.3,1-1.14,1s-1.09-.35-1.1-.93l.06-.06h.35l.07.06c0,.33.23.44.62.44s.67-.12.67-.52a.44.44,0,0,0-.28-.45l-.95-.47a.79.79,0,0,1-.49-.83c0-.54.26-.92,1.06-.92s1.07.23,1.09.9l-.07.06h-.36l-.06-.07c0-.33-.11-.42-.6-.42s-.58.16-.58.43a.46.46,0,0,0,.27.45l.88.4A.84.84,0,0,1,33.29,12.15Z"/><path class="cls-2" d="M24.22,25.2,10.94,15.51a1,1,0,0,1,.56-1.72H43.84a.53.53,0,0,1,.31,1L29.83,25.2A4.76,4.76,0,0,1,24.22,25.2Z"/><line class="cls-6" x1="15.3" y1="15.59" x2="40.48" y2="15.59"/><line class="cls-7" x1="18.61" y1="18.61" x2="36.36" y2="18.61"/><line class="cls-7" x1="21.68" y1="21.25" x2="32.52" y2="21.25"/><path class="cls-8" d="M29.59,23l13.19,9.15H11.69L24.88,23A4.14,4.14,0,0,1,29.59,23Z"/></svg>
